# xmcd
#
# Track frame offsets: 
#        150
#        21859
#        43119
#        67834
#        89479
#        107584
#        130814
#        152734
#        175549
#        197569
#        220669
#        238778
#        258348
#        285053
#        308995
#        328148
#
# Disc length: 4614 seconds
#
# Revision: 0
# Processed by: cddbd v1.5.2PL0 Copyright (c) Steve Scherf et al.
# Submitted via: ExactAudioCopy v0.95b4
#
DISCID=d4120410
DTITLE=Eric Clapton - Millenium Collection CD2
DYEAR=1900
DGENRE=Blues
TTITLE0=Pretending
TTITLE1=Layla
TTITLE2=Broken Down
TTITLE3=Blue Eyes Blue
TTITLE4=Before You Accuse Me
TTITLE5=Believe In Life
TTITLE6=Second Nature
TTITLE7=She's Waiting
TTITLE8=Modern Girl
TTITLE9=Superman Inside
TTITLE10=My Father's Eyes
TTITLE11=Traveling Light
TTITLE12=Lead On Me
TTITLE13=Find Myself
TTITLE14=Come Rain Or Come Shine
TTITLE15=Change The World
EXTD=
EXTT0=
EXTT1=
EXTT2=
EXTT3=
EXTT4=
EXTT5=
EXTT6=
EXTT7=
EXTT8=
EXTT9=
EXTT10=
EXTT11=
EXTT12=
EXTT13=
EXTT14=
EXTT15=
PLAYORDER=
